<svg xmlns="http://www.w3.org/2000/svg" xmlns:xlink="http://www.w3.org/1999/xlink" viewBox="0 0 500.83 513.16"><defs><style>.cls-1{isolation:isolate;}.cls-2,.cls-7{fill:#e8ecf7;}.cls-3{fill:#e57139;}.cls-4{fill:#c85a2b;}.cls-5{fill:#fb944b;}.cls-10,.cls-17,.cls-18,.cls-20,.cls-22,.cls-24,.cls-26,.cls-27,.cls-40,.cls-41,.cls-42,.cls-48,.cls-49,.cls-50,.cls-52,.cls-54,.cls-6,.cls-7,.cls-8,.cls-9{mix-blend-mode:multiply;}.cls-6{fill:url(#linear-gradient);}.cls-8{fill:url(#linear-gradient-2);}.cls-9{fill:url(#linear-gradient-3);}.cls-10{fill:#dae0f5;}.cls-11{fill:#bbc0e6;}.cls-12{fill:#e3e8ff;}.cls-13{fill:#fff;}.cls-14,.cls-50{fill:#ced3f8;}.cls-15{fill:#d9dfff;}.cls-16{fill:#f6f6fb;}.cls-17{fill:url(#linear-gradient-4);}.cls-18{fill:url(#linear-gradient-5);}.cls-19{fill:url(#linear-gradient-6);}.cls-20{fill:url(#linear-gradient-7);}.cls-21{fill:url(#linear-gradient-8);}.cls-22{fill:url(#linear-gradient-9);}.cls-23{fill:url(#linear-gradient-10);}.cls-24{fill:url(#linear-gradient-11);}.cls-25{fill:url(#linear-gradient-12);}.cls-26{fill:url(#linear-gradient-13);}.cls-27{fill:url(#linear-gradient-14);}.cls-28{fill:url(#linear-gradient-15);}.cls-29{fill:#121047;}.cls-30{fill:#131147;}.cls-31{fill:url(#linear-gradient-16);}.cls-32{fill:url(#linear-gradient-17);}.cls-33{fill:#5652cc;}.cls-34{fill:#f2c39d;}.cls-35{fill:url(#linear-gradient-18);}.cls-36{fill:url(#linear-gradient-19);}.cls-37{fill:#fcd1a9;}.cls-38{fill:#20196f;}.cls-39{fill:url(#linear-gradient-20);}.cls-40{fill:url(#linear-gradient-21);}.cls-41{fill:url(#linear-gradient-22);}.cls-42{fill:url(#linear-gradient-23);}.cls-43{fill:url(#linear-gradient-24);}.cls-44{fill:url(#linear-gradient-25);}.cls-45{fill:url(#linear-gradient-26);}.cls-46{fill:#423eaf;}.cls-47{fill:#807dfb;}.cls-48{fill:url(#linear-gradient-27);}.cls-49{fill:url(#linear-gradient-28);}.cls-51{mix-blend-mode:screen;}.cls-52{fill:url(#linear-gradient-29);}.cls-53{fill:url(#linear-gradient-30);}.cls-54{fill:url(#linear-gradient-31);}.cls-55{fill:url(#linear-gradient-32);}.cls-56{fill:#ffc16b;}</style><linearGradient id="linear-gradient" x1="857.91" y1="362.97" x2="935.27" y2="362.97" gradientUnits="userSpaceOnUse"><stop offset="0" stop-color="#dae0f5"/><stop offset="1" stop-color="#fff"/></linearGradient><linearGradient id="linear-gradient-2" x1="338.09" y1="221.62" x2="352.93" y2="221.62" gradientUnits="userSpaceOnUse"><stop offset="0" stop-color="#e8ecf7"/><stop offset="1" stop-color="#fff"/></linearGradient><linearGradient id="linear-gradient-3" x1="338.09" y1="261.67" x2="364.92" y2="261.67" xlink:href="#linear-gradient-2"/><linearGradient id="linear-gradient-4" x1="199.56" y1="269.49" x2="290.32" y2="269.49" gradientUnits="userSpaceOnUse"><stop offset="0" stop-color="#dae0f5"/><stop offset="0.45" stop-color="#e8ecf9"/><stop offset="1" stop-color="#fff"/></linearGradient><linearGradient id="linear-gradient-5" x1="90.06" y1="411.9" x2="65.12" y2="411.9" gradientUnits="userSpaceOnUse"><stop offset="0" stop-color="#fff"/><stop offset="1" stop-color="#d1d7f3"/></linearGradient><linearGradient id="linear-gradient-6" x1="622.35" y1="610.56" x2="643.08" y2="610.56" gradientUnits="userSpaceOnUse"><stop offset="0.4" stop-color="#807dfb"/><stop offset="0.47" stop-color="#716eeb"/><stop offset="0.57" stop-color="#5652cc"/></linearGradient><linearGradient id="linear-gradient-7" x1="464.06" y1="446.24" x2="401.8" y2="446.24" xlink:href="#linear-gradient-5"/><linearGradient id="linear-gradient-8" x1="943.51" y1="639.68" x2="995.27" y2="639.68" xlink:href="#linear-gradient-6"/><linearGradient id="linear-gradient-9" x1="259.2" y1="505.22" x2="223.97" y2="505.22" xlink:href="#linear-gradient-5"/><linearGradient id="linear-gradient-10" x1="776.91" y1="702.44" x2="806.2" y2="702.44" gradientUnits="userSpaceOnUse"><stop offset="0.4" stop-color="#ced3f8"/><stop offset="0.55" stop-color="#bec3e9"/><stop offset="0.57" stop-color="#bbc0e6"/></linearGradient><linearGradient id="linear-gradient-11" x1="125.84" y1="260.02" x2="102.52" y2="260.02" xlink:href="#linear-gradient-5"/><linearGradient id="linear-gradient-12" x1="660.42" y1="458.91" x2="679.8" y2="458.91" xlink:href="#linear-gradient-10"/><linearGradient id="linear-gradient-13" x1="943.24" y1="576.93" x2="998.57" y2="576.93" gradientTransform="translate(-786.37 -202.15)" gradientUnits="userSpaceOnUse"><stop offset="0" stop-color="#c4cae8"/><stop offset="0.09" stop-color="#ced3ec"/><stop offset="0.41" stop-color="#e9ebf6"/><stop offset="0.69" stop-color="#f9fafd"/><stop offset="0.9" stop-color="#fff"/></linearGradient><linearGradient id="linear-gradient-14" x1="854.76" y1="562.26" x2="910.08" y2="562.26" gradientTransform="translate(-722.66 -202.15)" xlink:href="#linear-gradient-13"/><linearGradient id="linear-gradient-15" x1="-51.52" y1="560.31" x2="-31.13" y2="560.31" gradientTransform="matrix(-1, 0, 0, 1, 662.21, 0)" gradientUnits="userSpaceOnUse"><stop offset="0" stop-color="#423eaf"/><stop offset="0.3" stop-color="#3a35a0"/><stop offset="0.89" stop-color="#241e77"/><stop offset="1" stop-color="#1f196f"/></linearGradient><linearGradient id="linear-gradient-16" x1="-76.74" y1="574.98" x2="-56.35" y2="574.98" xlink:href="#linear-gradient-15"/><linearGradient id="linear-gradient-17" x1="-67.88" y1="526.25" x2="-32.82" y2="526.25" gradientTransform="matrix(-1, 0, 0, 1, 662.21, 0)" gradientUnits="userSpaceOnUse"><stop offset="0" stop-color="#423eaf"/><stop offset="0.3" stop-color="#353097"/><stop offset="0.75" stop-color="#251f7a"/><stop offset="1" stop-color="#1f196f"/></linearGradient><linearGradient id="linear-gradient-18" x1="2218.8" y1="446.98" x2="2240.23" y2="446.98" gradientTransform="matrix(-1, 0, 0, 1, 2963.46, 0)" gradientUnits="userSpaceOnUse"><stop offset="0" stop-color="#423eaf"/><stop offset="0.98" stop-color="#7e7bf9"/><stop offset="1" stop-color="#807dfb"/></linearGradient><linearGradient id="linear-gradient-19" x1="-69.24" y1="463.33" x2="-32.62" y2="463.33" gradientTransform="matrix(-1, 0, 0, 1, 662.21, 0)" gradientUnits="userSpaceOnUse"><stop offset="0" stop-color="#5652cc"/><stop offset="1" stop-color="#807dfb"/></linearGradient><linearGradient id="linear-gradient-20" x1="1807.51" y1="460.82" x2="1777.52" y2="450.27" gradientTransform="translate(-1057.64)" xlink:href="#linear-gradient-19"/><linearGradient id="linear-gradient-21" x1="884.3" y1="560.5" x2="904.62" y2="560.5" gradientUnits="userSpaceOnUse"><stop offset="0" stop-color="#c4cae9"/><stop offset="1" stop-color="#dae0f5"/></linearGradient><linearGradient id="linear-gradient-22" x1="835.36" y1="586.17" x2="897.4" y2="586.17" gradientUnits="userSpaceOnUse"><stop offset="0" stop-color="#c4cae9"/><stop offset="0.25" stop-color="#cdd2ec"/><stop offset="0.65" stop-color="#e4e7f5"/><stop offset="1" stop-color="#fff"/></linearGradient><linearGradient id="linear-gradient-23" x1="897.51" y1="560.5" x2="932.81" y2="560.5" xlink:href="#linear-gradient-22"/><linearGradient id="linear-gradient-24" x1="275.79" y1="397.16" x2="275.79" y2="397.16" gradientUnits="userSpaceOnUse"><stop offset="0" stop-color="#c4cae9"/><stop offset="1" stop-color="#fff"/></linearGradient><linearGradient id="linear-gradient-25" x1="884.31" y1="550.2" x2="909.5" y2="550.2" gradientUnits="userSpaceOnUse"><stop offset="0" stop-color="#423eaf"/><stop offset="1" stop-color="#5652cc"/></linearGradient><linearGradient id="linear-gradient-26" x1="885.45" y1="561.98" x2="917.41" y2="561.98" gradientUnits="userSpaceOnUse"><stop offset="0" stop-color="#5652cc"/><stop offset="1" stop-color="#423eaf"/></linearGradient><linearGradient id="linear-gradient-27" x1="1040" y1="561.48" x2="1068.42" y2="561.48" gradientUnits="userSpaceOnUse"><stop offset="0" stop-color="#d1d7f3"/><stop offset="0.28" stop-color="#e2e6f8"/><stop offset="0.71" stop-color="#f7f8fd"/><stop offset="1" stop-color="#fff"/></linearGradient><linearGradient id="linear-gradient-28" x1="656.97" y1="353.27" x2="735.47" y2="385.77" gradientUnits="userSpaceOnUse"><stop offset="0" stop-color="#807dfb"/><stop offset="0.3" stop-color="#716de8"/><stop offset="0.9" stop-color="#4945b7"/><stop offset="1" stop-color="#423eaf"/></linearGradient><linearGradient id="linear-gradient-29" x1="103.89" y1="523.14" x2="159.96" y2="523.14" gradientTransform="translate(475.17)" gradientUnits="userSpaceOnUse"><stop offset="0.43" stop-color="#d1d7f3"/><stop offset="0.49" stop-color="#d7dcf5"/><stop offset="0.81" stop-color="#f4f6fc"/><stop offset="1" stop-color="#fff"/></linearGradient><linearGradient id="linear-gradient-30" x1="92.43" y1="525.98" x2="145.33" y2="525.98" gradientTransform="translate(475.17)" gradientUnits="userSpaceOnUse"><stop offset="0" stop-color="#ffaf6d"/><stop offset="0.36" stop-color="#f39356"/><stop offset="0.76" stop-color="#e97a41"/><stop offset="1" stop-color="#e57139"/></linearGradient><linearGradient id="linear-gradient-31" x1="326.68" y1="517.33" x2="360.17" y2="517.33" xlink:href="#linear-gradient-29"/><linearGradient id="linear-gradient-32" x1="319.84" y1="519.02" x2="351.43" y2="519.02" xlink:href="#linear-gradient-30"/></defs><g class="cls-1"><g id="Objects"><g id="Layer_15" data-name="Layer 15"><path class="cls-2" d="M861.85,480.7l4.62,2.66L748,551.74c-17.61-9.13-44.71-8.81-61.65,1-17.51,10.12-17.51,26.51,0,36.62s45.92,10.12,63.44,0c16.93-9.77,17.49-25.42,1.68-35.59l118.43-68.38,4.62,2.67,12.81-14.73Z" transform="translate(-567.59 -202.15)"/></g><g id="Layer_16" data-name="Layer 16"><polygon class="cls-3" points="303.8 251.07 274.21 233.99 274.21 218.41 303.8 235.49 303.8 251.07"/><polygon class="cls-4" points="303.8 251.07 312.04 246.31 312.04 230.73 303.8 235.49 303.8 251.07"/><polygon class="cls-5" points="303.8 235.49 312.04 230.73 282.45 213.65 274.21 218.41 303.8 235.49"/><polygon class="cls-3" points="335.74 269.51 306.15 252.43 306.15 236.85 335.74 253.93 335.74 269.51"/><polygon class="cls-4" points="335.74 269.51 343.98 264.75 343.98 249.17 335.74 253.93 335.74 269.51"/><polygon class="cls-5" points="335.74 253.93 343.98 249.17 314.39 232.09 306.15 236.85 335.74 253.93"/><polygon class="cls-3" points="367.68 287.95 338.09 270.87 338.09 255.29 367.68 272.37 367.68 287.95"/><polygon class="cls-4" points="367.68 287.95 375.92 283.19 375.92 267.61 367.68 272.37 367.68 287.95"/><polygon class="cls-5" points="367.68 272.37 375.92 267.61 346.33 250.53 338.09 255.29 367.68 272.37"/><polygon class="cls-3" points="287.83 223.55 274.21 215.69 274.21 200.11 287.83 207.97 287.83 223.55"/><polygon class="cls-4" points="287.83 223.55 296.07 218.79 296.07 203.21 287.83 207.97 287.83 223.55"/><polygon class="cls-5" points="287.83 207.97 296.07 203.21 282.45 195.35 274.21 200.11 287.83 207.97"/><polygon class="cls-3" points="319.77 241.99 290.18 224.91 290.18 209.33 319.77 226.41 319.77 241.99"/><polygon class="cls-4" points="319.77 241.99 328.01 237.23 328.01 221.65 319.77 226.41 319.77 241.99"/><polygon class="cls-5" points="319.77 226.41 328.01 221.65 298.42 204.57 290.18 209.33 319.77 226.41"/><polygon class="cls-3" points="351.71 260.43 322.12 243.35 322.12 227.77 351.71 244.85 351.71 260.43"/><polygon class="cls-4" points="351.71 260.43 359.95 255.67 359.95 240.09 351.71 244.85 351.71 260.43"/><polygon class="cls-5" points="351.71 244.85 359.95 240.09 330.36 223.01 322.12 227.77 351.71 244.85"/><polygon class="cls-3" points="367.68 269.65 354.06 261.79 354.06 246.21 367.68 254.07 367.68 269.65"/><polygon class="cls-4" points="367.68 269.65 375.92 264.89 375.92 249.31 367.68 254.07 367.68 269.65"/><polygon class="cls-5" points="367.68 254.07 375.92 249.31 362.3 241.45 354.06 246.21 367.68 254.07"/><polygon class="cls-3" points="303.8 214.47 274.21 197.39 274.21 181.81 303.8 198.89 303.8 214.47"/><polygon class="cls-4" points="303.8 214.47 312.04 209.71 312.04 194.13 303.8 198.89 303.8 214.47"/><polygon class="cls-5" points="303.8 198.89 312.04 194.13 282.45 177.05 274.21 181.81 303.8 198.89"/><polygon class="cls-3" points="335.74 232.91 306.15 215.83 306.15 200.25 335.74 217.33 335.74 232.91"/><polygon class="cls-4" points="335.74 232.91 343.98 228.15 343.98 212.57 335.74 217.33 335.74 232.91"/><polygon class="cls-5" points="335.74 217.33 343.98 212.57 314.39 195.49 306.15 200.25 335.74 217.33"/><polygon class="cls-3" points="367.68 251.35 338.09 234.27 338.09 218.69 367.68 235.77 367.68 251.35"/><polygon class="cls-4" points="367.68 251.35 375.92 246.59 375.92 231.01 367.68 235.77 367.68 251.35"/><polygon class="cls-5" points="367.68 235.77 375.92 231.01 346.33 213.93 338.09 218.69 367.68 235.77"/><polygon class="cls-3" points="287.83 186.96 274.21 179.09 274.21 163.51 287.83 171.38 287.83 186.96"/><polygon class="cls-4" points="287.83 186.96 296.07 182.2 296.07 166.62 287.83 171.38 287.83 186.96"/><polygon class="cls-5" points="287.83 171.38 296.07 166.62 282.45 158.75 274.21 163.51 287.83 171.38"/><polygon class="cls-3" points="319.77 205.4 290.18 188.31 290.18 172.73 319.77 189.82 319.77 205.4"/><polygon class="cls-4" points="319.77 205.4 328.01 200.64 328.01 185.06 319.77 189.82 319.77 205.4"/><polygon class="cls-5" points="319.77 189.82 328.01 185.06 298.42 167.97 290.18 172.73 319.77 189.82"/><polygon class="cls-3" points="351.71 223.84 322.12 206.75 322.12 191.18 351.71 208.26 351.71 223.84"/><polygon class="cls-4" points="351.71 223.84 359.95 219.08 359.95 203.5 351.71 208.26 351.71 223.84"/><polygon class="cls-5" points="351.71 208.26 359.95 203.5 330.36 186.42 322.12 191.18 351.71 208.26"/><polygon class="cls-3" points="367.68 233.06 354.06 225.19 354.06 209.62 367.68 217.48 367.68 233.06"/><polygon class="cls-4" points="367.68 233.06 375.92 228.3 375.92 212.72 367.68 217.48 367.68 233.06"/><polygon class="cls-5" points="367.68 217.48 375.92 212.72 362.3 204.86 354.06 209.62 367.68 217.48"/><polygon class="cls-3" points="303.8 177.89 274.21 160.81 274.21 145.22 303.8 162.31 303.8 177.89"/><polygon class="cls-4" points="303.8 177.89 312.04 173.13 312.04 157.55 303.8 162.31 303.8 177.89"/><polygon class="cls-5" points="303.8 162.31 312.04 157.55 282.45 140.47 274.21 145.22 303.8 162.31"/><polygon class="cls-3" points="335.74 196.33 306.15 179.25 306.15 163.67 335.74 180.75 335.74 196.33"/><polygon class="cls-4" points="335.74 196.33 343.98 191.57 343.98 175.99 335.74 180.75 335.74 196.33"/><polygon class="cls-5" points="335.74 180.75 343.98 175.99 314.39 158.91 306.15 163.67 335.74 180.75"/><polygon class="cls-3" points="367.68 214.77 338.09 197.69 338.09 182.11 367.68 199.19 367.68 214.77"/><polygon class="cls-4" points="367.68 214.77 375.92 210.01 375.92 194.43 367.68 199.19 367.68 214.77"/><polygon class="cls-5" points="367.68 199.19 375.92 194.43 346.33 177.35 338.09 182.11 367.68 199.19"/><polygon class="cls-3" points="287.83 150.37 274.21 142.51 274.21 126.93 287.83 134.79 287.83 150.37"/><polygon class="cls-4" points="287.83 150.37 296.07 145.61 296.07 130.03 287.83 134.79 287.83 150.37"/><polygon class="cls-5" points="287.83 134.79 296.07 130.03 282.45 122.17 274.21 126.93 287.83 134.79"/><polygon class="cls-3" points="319.77 168.81 290.18 151.73 290.18 136.15 319.77 153.23 319.77 168.81"/><polygon class="cls-4" points="319.77 168.81 328.01 164.05 328.01 148.47 319.77 153.23 319.77 168.81"/><polygon class="cls-5" points="319.77 153.23 328.01 148.47 298.42 131.39 290.18 136.15 319.77 153.23"/><polygon class="cls-3" points="351.71 187.25 322.12 170.17 322.12 154.59 351.71 171.67 351.71 187.25"/><polygon class="cls-4" points="351.71 187.25 359.95 182.49 359.95 166.91 351.71 171.67 351.71 187.25"/><polygon class="cls-5" points="351.71 171.67 359.95 166.91 330.36 149.83 322.12 154.59 351.71 171.67"/><polygon class="cls-3" points="367.68 196.47 354.06 188.61 354.06 173.03 367.68 180.89 367.68 196.47"/><polygon class="cls-4" points="367.68 196.47 375.92 191.71 375.92 176.13 367.68 180.89 367.68 196.47"/><polygon class="cls-5" points="367.68 180.89 375.92 176.13 362.3 168.27 354.06 173.03 367.68 180.89"/><polygon class="cls-3" points="303.8 141.29 274.21 124.21 274.21 108.63 303.8 125.71 303.8 141.29"/><polygon class="cls-4" points="303.8 141.29 312.04 136.53 312.04 120.95 303.8 125.71 303.8 141.29"/><polygon class="cls-5" points="303.8 125.71 312.04 120.95 282.45 103.87 274.21 108.63 303.8 125.71"/><polygon class="cls-3" points="335.74 159.73 306.15 142.65 306.15 127.07 335.74 144.15 335.74 159.73"/><polygon class="cls-4" points="335.74 159.73 343.98 154.97 343.98 139.39 335.74 144.15 335.74 159.73"/><polygon class="cls-5" points="335.74 144.15 343.98 139.39 314.39 122.31 306.15 127.07 335.74 144.15"/><polygon class="cls-3" points="367.68 178.17 338.09 161.09 338.09 145.51 367.68 162.59 367.68 178.17"/><polygon class="cls-4" points="367.68 178.17 375.92 173.41 375.92 157.83 367.68 162.59 367.68 178.17"/><polygon class="cls-5" points="367.68 162.59 375.92 157.83 346.33 140.75 338.09 145.51 367.68 162.59"/><polygon class="cls-3" points="287.83 113.77 274.21 105.91 274.21 90.33 287.83 98.19 287.83 113.77"/><polygon class="cls-4" points="287.83 113.77 296.07 109.02 296.07 93.44 287.83 98.19 287.83 113.77"/><polygon class="cls-5" points="287.83 98.19 296.07 93.44 282.45 85.57 274.21 90.33 287.83 98.19"/><polygon class="cls-3" points="319.77 132.21 290.18 115.13 290.18 99.55 319.77 116.64 319.77 132.21"/><polygon class="cls-4" points="319.77 132.21 328.01 127.45 328.01 111.88 319.77 116.64 319.77 132.21"/><polygon class="cls-5" points="319.77 116.64 328.01 111.88 298.42 94.79 290.18 99.55 319.77 116.64"/><polygon class="cls-3" points="351.71 150.66 322.12 133.57 322.12 117.99 351.71 135.07 351.71 150.66"/><polygon class="cls-4" points="351.71 150.66 359.95 145.9 359.95 130.32 351.71 135.07 351.71 150.66"/><polygon class="cls-5" points="351.71 135.07 359.95 130.32 330.36 113.23 322.12 117.99 351.71 135.07"/><polygon class="cls-3" points="367.68 159.88 354.06 152.01 354.06 136.43 367.68 144.29 367.68 159.88"/><polygon class="cls-4" points="367.68 159.88 375.92 155.12 375.92 139.54 367.68 144.29 367.68 159.88"/><polygon class="cls-5" points="367.68 144.29 375.92 139.54 362.3 131.68 354.06 136.43 367.68 144.29"/><polygon class="cls-3" points="303.8 104.69 274.21 87.61 274.21 72.03 303.8 89.11 303.8 104.69"/><polygon class="cls-4" points="303.8 104.69 312.04 99.93 312.04 84.36 303.8 89.11 303.8 104.69"/><polygon class="cls-5" points="303.8 89.11 312.04 84.36 282.45 67.27 274.21 72.03 303.8 89.11"/><polygon class="cls-3" points="335.74 123.13 306.15 106.05 306.15 90.47 335.74 107.56 335.74 123.13"/><polygon class="cls-4" points="335.74 123.13 343.98 118.38 343.98 102.8 335.74 107.56 335.74 123.13"/><polygon class="cls-5" points="335.74 107.56 343.98 102.8 314.39 85.71 306.15 90.47 335.74 107.56"/><polygon class="cls-3" points="367.68 141.57 338.09 124.49 338.09 108.91 367.68 126 367.68 141.57"/><polygon class="cls-4" points="367.68 141.57 375.92 136.82 375.92 121.24 367.68 126 367.68 141.57"/><polygon class="cls-5" points="367.68 126 375.92 121.24 346.33 104.15 338.09 108.91 367.68 126"/><polygon class="cls-3" points="287.83 77.18 274.21 69.31 274.21 53.73 287.83 61.6 287.83 77.18"/><polygon class="cls-4" points="287.83 77.18 296.07 72.42 296.07 56.84 287.83 61.6 287.83 77.18"/><polygon class="cls-5" points="287.83 61.6 296.07 56.84 282.45 48.98 274.21 53.73 287.83 61.6"/><polygon class="cls-3" points="319.77 95.62 290.18 78.53 290.18 62.95 319.77 80.04 319.77 95.62"/><polygon class="cls-4" points="319.77 95.62 328.01 90.86 328.01 75.28 319.77 80.04 319.77 95.62"/><polygon class="cls-5" points="319.77 80.04 328.01 75.28 298.42 58.2 290.18 62.95 319.77 80.04"/><polygon class="cls-3" points="351.71 114.06 322.12 96.97 322.12 81.4 351.71 98.48 351.71 114.06"/><polygon class="cls-4" points="351.71 114.06 359.95 109.3 359.95 93.72 351.71 98.48 351.71 114.06"/><polygon class="cls-5" points="351.71 98.48 359.95 93.72 330.36 76.64 322.12 81.4 351.71 98.48"/><polygon class="cls-3" points="367.68 123.28 354.06 115.42 354.06 99.84 367.68 107.7 367.68 123.28"/><polygon class="cls-4" points="367.68 123.28 375.92 118.52 375.92 102.94 367.68 107.7 367.68 123.28"/><polygon class="cls-5" points="367.68 107.7 375.92 102.94 362.3 95.08 354.06 99.84 367.68 107.7"/><polygon class="cls-3" points="303.8 68.1 274.21 51.02 274.21 35.44 303.8 52.52 303.8 68.1"/><polygon class="cls-4" points="303.8 68.1 312.04 63.34 312.04 47.76 303.8 52.52 303.8 68.1"/><polygon class="cls-5" points="303.8 52.52 312.04 47.76 282.45 30.68 274.21 35.44 303.8 52.52"/><polygon class="cls-3" points="335.74 86.54 306.15 69.46 306.15 53.88 335.74 70.96 335.74 86.54"/><polygon class="cls-4" points="335.74 86.54 343.98 81.78 343.98 66.2 335.74 70.96 335.74 86.54"/><polygon class="cls-5" points="335.74 70.96 343.98 66.2 314.39 49.12 306.15 53.88 335.74 70.96"/><polygon class="cls-3" points="367.68 104.98 338.09 87.9 338.09 72.32 367.68 89.4 367.68 104.98"/><polygon class="cls-4" points="367.68 104.98 375.92 100.22 375.92 84.64 367.68 89.4 367.68 104.98"/><polygon class="cls-5" points="367.68 89.4 375.92 84.64 346.33 67.56 338.09 72.32 367.68 89.4"/><polygon class="cls-3" points="287.83 40.58 274.21 32.72 274.21 17.14 287.83 25 287.83 40.58"/><polygon class="cls-4" points="287.83 40.58 296.07 35.82 296.07 20.24 287.83 25 287.83 40.58"/><polygon class="cls-5" points="287.83 25 296.07 20.24 282.45 12.38 274.21 17.14 287.83 25"/><polygon class="cls-3" points="319.77 59.02 290.18 41.94 290.18 26.36 319.77 43.44 319.77 59.02"/><polygon class="cls-4" points="319.77 59.02 328.01 54.26 328.01 38.68 319.77 43.44 319.77 59.02"/><polygon class="cls-5" points="319.77 43.44 328.01 38.68 298.42 21.6 290.18 26.36 319.77 43.44"/><polygon class="cls-3" points="351.71 77.46 322.12 60.38 322.12 44.8 351.71 61.88 351.71 77.46"/><polygon class="cls-4" points="351.71 77.46 359.95 72.7 359.95 57.12 351.71 61.88 351.71 77.46"/><polygon class="cls-5" points="351.71 61.88 359.95 57.12 330.36 40.04 322.12 44.8 351.71 61.88"/><polygon class="cls-3" points="367.68 86.68 354.06 78.82 354.06 63.24 367.68 71.1 367.68 86.68"/><polygon class="cls-4" points="367.68 86.68 375.92 81.92 375.92 66.34 367.68 71.1 367.68 86.68"/><polygon class="cls-5" points="367.68 71.1 375.92 66.34 362.3 58.48 354.06 63.24 367.68 71.1"/></g><g id="Layer_19" data-name="Layer 19"><path class="cls-6" d="M887.36,392l-29.45-17v15.58l29.45,17Zm0-36.58-29.45-17V354l29.45,17Zm0-36.6-29.45-17v15.58l29.45,17Zm-11.18-43-18.27-10.55v15.58l23.38,13.5Zm-2.44-8.85v4.72l1.55.9Zm0,41.32L887.29,316l-5.11-18.53-8.44-4.87Zm47.91,155.74,7.62,4.4-5.11-18.53-2.51-1.45Zm-47.91-9.37,29.59,17.09V456.08L873.74,439Zm31.94-18.15,17.59,10.16-5.1-18.53-12.49-7.21Zm-2.35-16.94L873.74,402.4V418l29.59,17.08Zm-16,9.08-29.45-17v15.58l29.45,17Zm2.35-19.66,27.56,15.91-5.1-18.52-22.46-13Zm13.62-26-29.59-17.08v15.58l29.59,17.08Zm16,64.11-29.59-17.08V445.5l29.59,17.08Zm-61.39-1.57,13.48,7.78V437.64l-13.48-7.79ZM873.74,344.8l25.54,14.74L894.18,341l-20.44-11.8Zm56.42,126.77-24.48-14.14V473l29.59,17.09ZM871.39,364.45l-13.48-7.78v15.58L871.39,380Zm34.78,20.09-.49-.29v15.58l5.6,3.23ZM871.39,401l-13.48-7.78v15.58l13.48,7.78Zm18.32-76.22v10.9l3.58,2.06Zm-23.15-84-8.65-5v8.33l11.38,6.57Zm23.15,131.49,15.57,9-5.11-18.52-10.46-6Zm-18.32-81.06-13.48-7.78v15.58l13.48,7.78Zm0-32.92L870.18,254l-12.27-7.08v15.58l13.48,7.78Zm0,69.52-13.48-7.78v15.58l13.48,7.78Z" transform="translate(-567.59 -202.15)"/><polygon class="cls-7" points="302.59 51.82 290.32 44.74 290.32 42.02 304.97 50.45 302.59 51.82"/><polygon class="cls-7" points="308.59 73.58 290.18 62.95 292.56 61.58 303.8 68.1 306.15 66.74 306.15 69.46 310.94 72.22 308.59 73.58"/><polygon class="cls-7" points="303.8 89.11 290.32 81.33 290.32 78.62 306.15 87.75 303.8 89.11"/><polygon class="cls-7" points="314.59 95.34 306.15 90.47 308.5 89.11 316.94 93.98 314.59 95.34"/><polygon class="cls-7" points="319.77 116.64 290.32 99.63 290.32 99.47 292.54 98.19 303.8 104.69 306.15 103.33 306.15 106.05 322.12 115.28 319.77 116.64"/><polygon class="cls-7" points="303.8 125.71 290.32 117.93 290.32 115.21 306.15 124.35 303.8 125.71"/><polygon class="cls-7" points="319.77 153.23 290.32 136.23 290.32 136.07 292.54 134.79 303.8 141.29 306.15 139.93 306.15 142.65 322.12 151.87 319.77 153.23"/><polygon class="cls-7" points="319.77 226.41 290.32 209.41 290.32 209.25 292.54 207.97 303.8 214.47 306.15 213.11 306.15 215.83 322.12 225.05 319.77 226.41"/><polygon class="cls-7" points="319.77 189.82 290.32 172.81 290.32 172.65 292.54 171.38 303.8 177.88 306.15 176.52 306.15 179.24 322.12 188.46 319.77 189.82"/><polygon class="cls-7" points="332.58 160.63 322.12 154.59 324.48 153.23 334.94 159.27 332.58 160.63"/><polygon class="cls-8" points="350.57 225.9 338.09 218.69 340.44 217.33 352.93 224.54 350.57 225.9"/><polygon class="cls-7" points="303.8 162.31 290.32 154.53 290.32 151.81 306.15 160.95 303.8 162.31"/><polygon class="cls-7" points="303.8 198.89 290.32 191.11 290.32 188.4 306.15 197.53 303.8 198.89"/><polygon class="cls-7" points="303.8 235.49 290.32 227.71 290.32 224.99 306.15 234.13 303.8 235.49"/><polygon class="cls-7" points="338.58 182.39 338.09 182.11 340.44 180.75 340.94 181.03 338.58 182.39"/><polygon class="cls-7" points="335.74 180.75 306.15 163.67 308.5 162.31 319.77 168.81 322.12 167.45 322.12 170.17 338.09 179.39 335.74 180.75"/><polygon class="cls-7" points="344.58 204.14 322.12 191.18 324.48 189.82 335.74 196.32 338.09 194.96 338.09 197.68 346.93 202.78 344.58 204.14"/><polygon class="cls-7" points="335.74 217.33 306.15 200.25 308.5 198.89 319.77 205.4 322.12 204.04 322.12 206.75 338.09 215.97 335.74 217.33"/><polygon class="cls-7" points="351.71 244.85 322.12 227.77 324.48 226.41 335.74 232.91 338.09 231.55 338.09 234.27 354.06 243.49 351.71 244.85"/><polygon class="cls-7" points="335.74 253.93 306.15 236.85 308.5 235.49 319.77 241.99 322.12 240.63 322.12 243.35 338.09 252.57 335.74 253.93"/><polygon class="cls-9" points="362.57 269.42 338.09 255.29 340.44 253.93 351.71 260.43 354.06 259.07 354.06 261.79 364.92 268.06 362.57 269.42"/><polygon class="cls-7" points="326.58 138.87 306.15 127.07 308.5 125.71 319.77 132.21 322.12 130.85 322.12 133.57 328.94 137.51 326.58 138.87"/></g><g id="Layer_18" data-name="Layer 18"><polygon class="cls-10" points="394.04 303.17 394.04 78.6 387.56 67.37 387.56 299.43 394.04 303.17"/><polygon class="cls-11" points="277.36 26.2 277.36 243.29 283.84 239.54 283.84 29.95 277.36 26.2"/><polygon class="cls-12" points="381.07 71.11 381.07 303.17 368.11 295.69 368.11 78.6 277.36 26.2 277.36 243.29 264.4 235.8 264.4 3.75 381.07 71.11"/><polygon class="cls-13" points="381.07 71.11 264.38 3.74 270.87 0 387.56 67.37 381.07 71.11"/><polygon class="cls-11" points="381.07 71.11 381.07 303.17 387.56 299.43 387.56 67.37 381.07 71.11"/><polygon class="cls-10" points="394.04 303.17 381.07 303.17 387.56 299.43 394.04 303.17"/><polygon class="cls-14" points="199.56 78.6 283.84 29.95 290.32 33.69 290.32 243.29 199.56 295.69 199.56 78.6"/><polygon class="cls-11" points="212.19 191.48 203.57 196.46 203.57 206.41 212.19 201.43 212.19 191.48"/><polygon class="cls-2" points="213.73 199.25 209.13 196.6 206.63 198.04 213.73 202.14 225.41 195.4 222.91 193.95 213.73 199.25"/><polygon class="cls-11" points="225.41 198.29 225.41 195.4 213.73 202.14 213.73 205.03 225.41 198.29"/><polygon class="cls-15" points="213.73 205.03 213.73 202.14 206.63 198.04 206.63 200.94 213.73 205.03"/><polygon class="cls-15" points="199.56 78.6 199.56 295.69 193.08 291.94 193.08 74.86 199.56 78.6"/><polygon class="cls-16" points="283.84 29.95 199.56 78.6 193.08 74.86 277.36 26.2 283.84 29.95"/><polygon class="cls-17" points="199.56 295.69 290.32 295.69 290.32 243.29 199.56 295.69"/></g><g id="Layer_14" data-name="Layer 14"><rect class="cls-18" x="65.12" y="406.28" width="24.93" height="11.24"/><path class="cls-16" d="M631.1,607.05,623,602.38a1,1,0,0,1,0-1.85l8.08-4.67a3.28,3.28,0,0,1,1.61-.39,3.23,3.23,0,0,1,1.61.39l8.09,4.67a1,1,0,0,1,0,1.85l-8.09,4.67a3.23,3.23,0,0,1-1.61.39A3.28,3.28,0,0,1,631.1,607.05Z" transform="translate(-567.59 -202.15)"/><path class="cls-19" d="M642.41,602.38l-8.09,4.67a3.23,3.23,0,0,1-1.61.39,3.28,3.28,0,0,1-1.61-.39L623,602.38a1.11,1.11,0,0,1-.67-.93v12.24a1.14,1.14,0,0,0,.67.93l8.08,4.66a3.28,3.28,0,0,0,1.61.39,3.23,3.23,0,0,0,1.61-.39l8.09-4.66a1.16,1.16,0,0,0,.67-.93V601.45A1.13,1.13,0,0,1,642.41,602.38Z" transform="translate(-567.59 -202.15)"/><rect class="cls-20" x="401.8" y="432.21" width="62.26" height="28.07"/><path class="cls-16" d="M965.37,630.92l-20.19-11.66a2.45,2.45,0,0,1,0-4.64L965.37,603a8.9,8.9,0,0,1,8,0l20.19,11.66a2.45,2.45,0,0,1,0,4.64l-20.19,11.66a8.9,8.9,0,0,1-8,0Z" transform="translate(-567.59 -202.15)"/><path class="cls-21" d="M993.6,619.26l-20.19,11.66a8.9,8.9,0,0,1-8,0l-20.19-11.66a2.83,2.83,0,0,1-1.67-2.32v30.54a2.83,2.83,0,0,0,1.67,2.32l20.19,11.66a8.9,8.9,0,0,0,8,0L993.6,649.8a2.83,2.83,0,0,0,1.67-2.32V616.94A2.83,2.83,0,0,1,993.6,619.26Z" transform="translate(-567.59 -202.15)"/><rect class="cls-22" x="223.97" y="497.28" width="35.23" height="15.88"/><path class="cls-16" d="M789.28,697.48l-11.42-6.6a1.38,1.38,0,0,1,0-2.62l11.42-6.6a5.06,5.06,0,0,1,4.55,0l11.43,6.6a1.38,1.38,0,0,1,0,2.62l-11.43,6.6a5.06,5.06,0,0,1-4.55,0Z" transform="translate(-567.59 -202.15)"/><path class="cls-23" d="M805.26,690.88l-11.43,6.6a5.06,5.06,0,0,1-4.55,0l-11.42-6.6a1.59,1.59,0,0,1-1-1.31v17.28a1.62,1.62,0,0,0,1,1.32l11.42,6.59a5,5,0,0,0,4.55,0l11.43-6.59a1.62,1.62,0,0,0,.94-1.32V689.57A1.6,1.6,0,0,1,805.26,690.88Z" transform="translate(-567.59 -202.15)"/><rect class="cls-24" x="102.52" y="254.76" width="23.32" height="10.51"/><path class="cls-16" d="M668.61,455.62,661,451.26a1.07,1.07,0,0,1-.62-.87,1.06,1.06,0,0,1,.62-.87l7.57-4.37a3.05,3.05,0,0,1,1.5-.36,3.09,3.09,0,0,1,1.51.36l7.56,4.37a1.06,1.06,0,0,1,.62.87,1.07,1.07,0,0,1-.62.87l-7.56,4.36a3.09,3.09,0,0,1-1.51.36A3.05,3.05,0,0,1,668.61,455.62Z" transform="translate(-567.59 -202.15)"/><path class="cls-25" d="M679.18,451.26l-7.56,4.36a3.09,3.09,0,0,1-1.51.36,3.05,3.05,0,0,1-1.5-.36L661,451.26a1.07,1.07,0,0,1-.62-.87v11.44a1.07,1.07,0,0,0,.62.87l7.57,4.36a3.05,3.05,0,0,0,1.5.36,3.09,3.09,0,0,0,1.51-.36l7.56-4.36a1.07,1.07,0,0,0,.62-.87V450.39A1.07,1.07,0,0,1,679.18,451.26Z" transform="translate(-567.59 -202.15)"/></g><g id="Layer_20" data-name="Layer 20"><rect class="cls-26" x="156.86" y="369.7" width="55.33" height="10.17"/><rect class="cls-27" x="132.1" y="355.03" width="55.32" height="10.17"/><path class="cls-28" d="M693.34,564.21c0-8,5.07-8.22,5.07-8.22a20.91,20.91,0,0,0,7.19-1.85c4.39-1.83,10.59-1.12,7.12,5.26a2.56,2.56,0,0,1-.11.24,3.13,3.13,0,0,1-1.13,1l-11.06,6.49C698.73,568.07,693.38,565.85,693.34,564.21Z" transform="translate(-567.59 -202.15)"/><path class="cls-29" d="M693.37,563.49c.1,1.64,5.38,3.82,7,2.87l11.06-6.49a9.89,9.89,0,0,0,1.56-1.13c-.1.21-.19.43-.32.66a2.56,2.56,0,0,1-.11.24,3.13,3.13,0,0,1-1.13,1l-11.06,6.49c-1.58.91-6.37-1-7-2.59a2.3,2.3,0,0,1,0-.32A5.58,5.58,0,0,1,693.37,563.49Z" transform="translate(-567.59 -202.15)"/><path class="cls-13" d="M695.4,554.94a46.66,46.66,0,0,1,5.89,1.16,2.49,2.49,0,0,0,.42,1.19l.12.16c.91.63,1.83,1.62-.32,3a3,3,0,0,1-3.87-.27,3.4,3.4,0,0,0-1.25-1.42,3,3,0,0,0-1.19-.5s0-.12,0-.12S694.86,554.94,695.4,554.94Z" transform="translate(-567.59 -202.15)"/><path class="cls-30" d="M695.32,476.83l22.5.4c-1.86,15-5.61,28.69-8.11,43.25-2.68,14.15-5.71,24.1-8.35,35.87-1,2.19-5.39,1.37-6.29-.74-.69-10.85-1.5-24.06,1.71-36.58C696.25,505.55,695,490.45,695.32,476.83Z" transform="translate(-567.59 -202.15)"/><path class="cls-31" d="M718.56,578.88c0-8,5.06-8.22,5.06-8.22a21,21,0,0,0,7.2-1.84c4.39-1.83,10.58-1.12,7.12,5.26a1.34,1.34,0,0,1-.12.24,3,3,0,0,1-1.12,1l-11.06,6.49C724,582.75,718.6,580.53,718.56,578.88Z" transform="translate(-567.59 -202.15)"/><path class="cls-29" d="M718.59,578.17c.09,1.64,5.38,3.82,7,2.86l11.06-6.48a10.56,10.56,0,0,0,1.56-1.14c-.11.22-.19.43-.32.67a1.34,1.34,0,0,1-.12.24,3,3,0,0,1-1.12,1l-11.06,6.49c-1.58.9-6.38-1-7-2.59a1.39,1.39,0,0,1,0-.32A5.58,5.58,0,0,1,718.59,578.17Z" transform="translate(-567.59 -202.15)"/><path class="cls-13" d="M720.62,569.61a46.3,46.3,0,0,1,5.89,1.17,2.6,2.6,0,0,0,.4,1.19l.14.15c.9.63,1.83,1.63-.33,3a3,3,0,0,1-3.86-.27,3.55,3.55,0,0,0-1.25-1.42,3.25,3.25,0,0,0-1.2-.51s0-.1,0-.1S720.07,569.61,720.62,569.61Z" transform="translate(-567.59 -202.15)"/><path class="cls-32" d="M711.19,512.58c-1.37-6.47-17.14-7.27-16.11-32.68,4.95-.73,29.92,11,34.86,10.25.62,15.14-.84,29.23-.93,44-.34,14.4-1.7,24.71-2.38,36.76-.6,2.32-5.1,2.23-6.33.29-2.46-10.58-5.41-23.49-4.28-36.36C714.55,527.7,712.79,520.15,711.19,512.58Z" transform="translate(-567.59 -202.15)"/><path class="cls-33" d="M706.5,430.55c-17.61,11.77-19.71,35.14-10.19,50C696.31,480.52,694.26,447.66,706.5,430.55Z" transform="translate(-567.59 -202.15)"/><path class="cls-34" d="M728.29,429.74c-.11-1.37.4-3.38-.5-4.36a13.7,13.7,0,0,0-2.92-2.05c-1,.55-4.3,3-4.3,3,.44,1.18,1.2,3.63,3.29,5.15C725,431,728.29,429.74,728.29,429.74Z" transform="translate(-567.59 -202.15)"/><path class="cls-35" d="M744.66,464.37C743,451.06,732.94,438,728.75,429.58a51.81,51.81,0,0,0-5.51,2.17c1.53,5.44,12.67,32.23,12.67,32.23Z" transform="translate(-567.59 -202.15)"/><path class="cls-36" d="M705.69,494.3c10.72,6,21.94,6,25.76-1.36-1.43-13.77-2.77-25,0-38.17-.81-7.29-1.39-8.38-.45-12.64-.33-1.42-4.72-4.47-7.91-7.38-3.45-3.15-5.78-6.15-7.56-6.51-14.66-3-21.78,23.12-20.56,51A20.23,20.23,0,0,0,705.69,494.3Z" transform="translate(-567.59 -202.15)"/><path class="cls-37" d="M707.39,429.9c3.17-2.3,2.92-7,2.65-10.2a15.66,15.66,0,0,1-.59-5.45c.47-6.95,5.3-12.65,10.7-11.91,10.88,1.48,8.54,7.11,8.07,14.05-.43,6.44-3.65,10.67-8.58,11.09-.07,1.06.36,4.27,1.69,5.61-3.58,2.14-8.8,1.13-10.86.2S705.9,431.44,707.39,429.9Z" transform="translate(-567.59 -202.15)"/><path class="cls-38" d="M724.49,398.94c-.25-.87-1.92-1.44-7.57.74l-1.45.57c-10.47,4.53-7.94,16.59-6.38,19.8a6.47,6.47,0,0,1,.83,3.79c4.11-.17,5.41,2.15,8-.16,1.89-1.65,4.72-3.59,5.19-4.4a3.17,3.17,0,0,0,.39-2c0-5.78,2.68-2.25,2.59-.92,1.1-.54,1-2.86,1-5.44h0C736,404.3,731.19,399.73,724.49,398.94Z" transform="translate(-567.59 -202.15)"/><path class="cls-39" d="M743.91,461.93c-3.75-7.37-6.42-10.43-13.06-20.12-1.54-2.28-6.51-1.42-9,1.82-3.32,4.37-1.9,10.73,0,13.32,4.81,5,8.23,7,12.47,10.49C741.31,473.11,746.83,467.68,743.91,461.93Z" transform="translate(-567.59 -202.15)"/></g><g id="Layer_21" data-name="Layer 21"><path class="cls-40" d="M888,565.64a18.07,18.07,0,0,0,8.91,2.13,19.24,19.24,0,0,0,7.64-1.49c-.29-.14-.64-.34-1.15-.64-4.91-2.83-4.91-7.45,0-10.28a12.9,12.9,0,0,1,1.24-.6c-4.94-2.22-12.1-2-16.64.59C883.07,558.19,883.07,562.81,888,565.64Z" transform="translate(-567.59 -202.15)"/><path class="cls-41" d="M835.36,599.26h7.93l-4-2.29Zm52-8L880.05,587l5.55-3.2-4.05-2.34,15.85-9.15-.51,0a31.82,31.82,0,0,1-11.44-2l-18.84,10.89-.35.32,4,2.28-5.56,3.2,7.33,4.23-5.6,3.23L855,587.92l-4.48,2.58,4.06,2.34-5.6,3.24,4.66,2.69-.93.54h0L848.05,602h15.39l5.6-3.23h0l-4.66-2.69,2.75-1.6h14.65l5.6-3.24h0Z" transform="translate(-567.59 -202.15)"/><path class="cls-42" d="M926.8,552.12c-6-3.46-14.8-4.32-22.2-2.6a24.89,24.89,0,0,1,6.8,2.6c3.88,2.24,6,5.21,6,8.38s-2.13,6.14-6,8.38a29.33,29.33,0,0,1-13.85,3.45l0,0h15.4l0,0a29.34,29.34,0,0,0,13.86-3.45c3.88-2.24,6-5.22,6-8.38S930.68,554.36,926.8,552.12Z" transform="translate(-567.59 -202.15)"/><polygon class="cls-43" points="275.79 397.16 275.79 397.16 275.79 397.16 275.79 397.16"/><polygon class="cls-33" points="265.68 385.6 271.28 388.83 271.28 379.95 265.68 376.71 265.68 385.6"/><polygon class="cls-33" points="262.26 389.35 267.86 392.58 267.86 383.69 262.26 380.46 262.26 389.35"/><path class="cls-33" d="M876.43,551.11h0v9.11l3.47-2C877.38,556.08,876.25,553.58,876.43,551.11Z" transform="translate(-567.59 -202.15)"/><path class="cls-44" d="M886.93,556.06a12,12,0,0,1,1.05-.71c4.92-2.83,12.91-2.83,17.82,0,.39.23.73.46,1.06.7a5.67,5.67,0,0,0,2.64-4.44c0-1.94-1.31-3.77-3.7-5.14-4.91-2.84-12.9-2.84-17.82,0C883.45,549.08,883.11,553.21,886.93,556.06Z" transform="translate(-567.59 -202.15)"/><path class="cls-45" d="M911.4,560a29.57,29.57,0,0,1-14.51,3.47,32,32,0,0,1-11.44-2v8.89a32,32,0,0,0,11.44,2,29.57,29.57,0,0,0,14.51-3.47c3.88-2.24,6-5.22,6-8.38v-8.89C917.41,554.77,915.28,557.75,911.4,560Z" transform="translate(-567.59 -202.15)"/><polygon class="cls-46" points="298.56 379.33 317.86 368.19 317.86 359.3 298.56 370.44 298.56 379.33"/><polygon class="cls-46" points="297.06 384.88 302.62 381.67 302.62 372.78 297.06 375.99 297.06 384.88"/><polygon class="cls-46" points="298.79 392.34 304.39 389.11 304.39 380.22 298.79 383.45 298.79 392.34"/><polygon class="cls-46" points="282.93 388.36 287.41 385.77 287.41 376.88 282.93 379.47 282.93 388.36"/><polygon class="cls-46" points="281.39 393.93 286.99 390.7 286.99 381.81 281.39 385.04 281.39 393.93"/><polygon class="cls-46" points="280.45 399.85 286.05 396.62 286.05 387.73 280.45 390.96 280.45 399.85"/><polygon class="cls-46" points="267.77 397.11 271.74 394.82 271.74 385.93 267.77 388.22 267.77 397.11"/><polygon class="cls-33" points="271.74 394.82 280.45 399.85 280.45 390.96 271.74 385.93 271.74 394.82"/><polygon class="cls-33" points="287.41 385.77 298.79 392.34 298.79 383.45 287.41 376.88 287.41 385.77"/><polygon class="cls-33" points="262.17 393.88 267.77 397.11 267.77 388.22 262.17 384.99 262.17 393.88"/><path class="cls-47" d="M879.86,558.21l-35.58,20.54-5.41-3.12-5.6,3.23,1.54.89-5,2.86,3.88,2.24-4,2.28,5.59,3.24,4-2.29,8.71,5,5.6-3.23L849,587.19l5.6-3.24-4.06-2.34L855,579l11.38,6.57,5.6-3.24-7.33-4.23,5.56-3.2-4.06-2.34,19.3-11.14a32,32,0,0,0,11.44,2A29.57,29.57,0,0,0,911.4,560c3.88-2.24,6-5.22,6-8.38s-2.13-6.14-6-8.38c-8-4.62-21-4.61-29,0C875.34,547.3,874.51,553.61,879.86,558.21Zm25.94-11.74c2.39,1.37,3.7,3.2,3.7,5.14s-1.31,3.77-3.7,5.14a19.62,19.62,0,0,1-17.82,0c-4.91-2.83-4.91-7.45,0-10.28S900.89,543.63,905.8,546.47Z" transform="translate(-567.59 -202.15)"/></g><g id="Layer_22" data-name="Layer 22"><path class="cls-48" d="M1040,571.6c4,.35,20-2.11,28.42-4.63l-27.08-15.63Z" transform="translate(-567.59 -202.15)"/><path class="cls-3" d="M1040.63,566.56,1014,497.88c-1.38-3.56-3.49-5.23-5.11-4.34h0l5.7-3.29h0c1.63-.89,3.74.78,5.12,4.34l26.65,68.68c1,2.52.9,4.22,0,4.8h0l-.08,0-.1.06-5.52,3.19h0C1041.53,570.78,1041.61,569.08,1040.63,566.56Z" transform="translate(-567.59 -202.15)"/><path class="cls-5" d="M1014,497.88c-1.66-4.28-4.37-5.85-6-3.49L981.3,532.3c-1.66,2.37-.3,5.87,3,7.79l53.29,30.77c3.32,1.91,4.68,0,3-4.3Z" transform="translate(-567.59 -202.15)"/><polygon class="cls-16" points="441.43 338.13 445.32 340.38 445.32 344.87 441.43 342.62 441.43 338.13"/><polygon class="cls-16" points="440.67 309 446.07 312.12 445.32 335.82 441.43 333.58 440.67 309"/></g><g id="Layer_23" data-name="Layer 23"><path class="cls-49" d="M667.7,403.3c0,2.68,1.9,3.78,4.22,2.44l37.27-21.52,9.06,8.6V379l3.56-2.06a9.36,9.36,0,0,0,4.22-7.3V336.26c0-2.68-1.9-3.77-4.22-2.43l-49.89,28.81a9.35,9.35,0,0,0-4.22,7.3Z" transform="translate(-567.59 -202.15)"/><polygon class="cls-50" points="109.67 170.17 109.67 174.05 113.03 172.11 113.03 168.23 109.67 170.17"/><polygon class="cls-50" points="109.67 177.92 109.67 181.81 113.03 179.87 113.03 175.98 109.67 177.92"/><polygon class="cls-50" points="109.67 185.68 109.67 189.56 113.03 187.63 113.03 183.74 109.67 185.68"/><g class="cls-51"><path class="cls-5" d="M688.25,368.55c0-6,4.4-11.16,9.32-14s9.45-3,9.35,3.1c0,5.84-4.64,9.13-6.67,11.87a7,7,0,0,0-1.32,4.51v.2l-4.61,2.66v-.24a13.7,13.7,0,0,1,3.84-10.11c1.85-2.2,4-3.75,4-6.17,0-3.1-2.48-2.4-4.64-1.15s-4.54,4.07-4.57,6.63Zm11.13,10.3c0,4.23-5.58,7.45-5.58,3.22S699.38,374.58,699.38,378.85Z" transform="translate(-567.59 -202.15)"/></g></g><g id="Layer_24" data-name="Layer 24"><path class="cls-52" d="M627.32,512.31c-5.52-3.2-12.87-4.66-20.09-4.45H592.72v1.85a29.69,29.69,0,0,0-6,2.6c-10.28,6-10.23,15.67.13,21.66a30.05,30.05,0,0,0,5.86,2.54v1.93h16.77c6.52-.1,13-1.58,18-4.46C637.73,528,637.69,518.29,627.32,512.31Z" transform="translate(-567.59 -202.15)"/><path class="cls-53" d="M575.4,534c-5.22-3-7.82-7-7.81-10.91l0-9.54c0,4,2.59,7.9,7.81,10.91,10.36,6,27.1,6,37.39,0,5.11-3,7.67-6.87,7.68-10.76l0,9.53c0,3.9-2.57,7.79-7.68,10.76C602.5,539.94,585.76,539.94,575.4,534Z" transform="translate(-567.59 -202.15)"/><path class="cls-16" d="M575.42,524.42c-10.36-6-10.41-15.67-.13-21.65s27-6,37.4,0,10.41,15.67.12,21.66S585.78,530.4,575.42,524.42Z" transform="translate(-567.59 -202.15)"/><path class="cls-11" d="M589.73,516.58l-.77-.44a29.9,29.9,0,0,0,4-3.27l2.92-2.74A24.65,24.65,0,0,1,600,506.8a6,6,0,0,1,3-.8,5.63,5.63,0,0,1,2.93.75c.85.48,1.27,1.05,1.27,1.69s-.43,1.21-1.28,1.71a44.59,44.59,0,0,1-5.88,2.37l-4.76,1.68A52.17,52.17,0,0,0,589.73,516.58Zm-2.88,1.24a1.74,1.74,0,0,1,0,3.3,6.31,6.31,0,0,1-5.7,0,1.74,1.74,0,0,1,0-3.29,5.78,5.78,0,0,1,2.85-.69A5.64,5.64,0,0,1,586.85,517.82Z" transform="translate(-567.59 -202.15)"/><path class="cls-54" d="M830.67,510.86a23.17,23.17,0,0,0-12-2.65H810v1.1a18.34,18.34,0,0,0-3.58,1.55c-6.14,3.57-6.1,9.36.08,12.94a18.11,18.11,0,0,0,3.5,1.51v1.16h10a22.64,22.64,0,0,0,10.73-2.67C836.89,520.22,836.86,514.43,830.67,510.86Z" transform="translate(-567.59 -202.15)"/><path class="cls-55" d="M799.67,523.79c-3.12-1.8-4.67-4.16-4.66-6.52v-5.69c0,2.36,1.55,4.71,4.66,6.51,6.19,3.57,16.18,3.57,22.33,0,3-1.78,4.58-4.1,4.58-6.42v5.69c0,2.32-1.53,4.64-4.59,6.42C815.85,527.36,805.85,527.36,799.67,523.79Z" transform="translate(-567.59 -202.15)"/><path class="cls-16" d="M799.68,518.09c-6.18-3.57-6.22-9.36-.07-12.93s16.14-3.57,22.32,0,6.22,9.36.08,12.94S805.87,521.66,799.68,518.09Z" transform="translate(-567.59 -202.15)"/><polygon class="cls-56" points="253.38 310.27 253.38 309 244.3 309 244.3 303.76 242.1 303.76 242.1 309 233.03 309 233.03 310.27 242.1 310.27 242.1 315.51 244.3 315.51 244.3 310.27 253.38 310.27"/></g></g></g></svg>